# xmcd
#
# Track frame offsets: 
#        150
#        9276
#        21322
#        32553
#        44168
#        53124
#        64841
#        73830
#        85129
#        95523
#        104956
#        116146
#        124787
#        133719
#        141640
#        149277
#        159101
#        168479
#        177733
#        187214
#        195962
#        210304
#        228792
#        240888
#        263524
#        273461
#        283776
#        294032
#        303086
#        311738
#
# Disc length: 4289 seconds
#
# Revision: 0
# Processed by: cddbd v1.5.2PL0 Copyright (c) Steve Scherf et al.
# Submitted via: ExactAudioCopy v0.99pb5
#
DISCID=ba10bf1e
DTITLE=Fats Domino - The Fabulous ''Mr. D'' plus A Lot Of Dominos!
DYEAR=2013
DGENRE=Blues
TTITLE0=The Big Beat
TTITLE1=I'll Be Glad When You're Dead, You Rascal You
TTITLE2=What Will I Tell My Heart
TTITLE3=Barrel House
TTITLE4=Little Mary
TTITLE5=SIck And Tired
TTITLE6=I Want You To Know
TTITLE7=''44''
TTITLE8=Mardi Gras In New Orleans
TTITLE9=I Can't Go On (Rosalie)
TTITLE10=Long Lonesome Journey
TTITLE11=Young School Girl
TTITLE12=Put Your Arms Around Me, Honey
TTITLE13=There Nights A Week
TTITLE14=Shu-Rah
TTITLE15=Rising Sun
TTITLE16=My Girl Josephine
TTITLE17=The Sheik Of Araby
TTITLE18=Walking To New Orleans
TTITLE19=Don't Come Knockin'
TTITLE20=Magic Isles
TTITLE21=You Always Hurt The One You Love
TTITLE22=It's The Talk Of The Town
TTITLE23=Natural Born Lover
TTITLE24=Stack And Billy
TTITLE25=Margie
TTITLE26=Be My Guest
TTITLE27=It's You I Love
TTITLE28=Lil' Liza Jane
TTITLE29=Howdy Podner
EXTD=
EXTT0=
EXTT1=
EXTT2=
EXTT3=
EXTT4=
EXTT5=
EXTT6=
EXTT7=
EXTT8=
EXTT9=
EXTT10=
EXTT11=
EXTT12=
EXTT13=
EXTT14=
EXTT15=
EXTT16=
EXTT17=
EXTT18=
EXTT19=
EXTT20=
EXTT21=
EXTT22=
EXTT23=
EXTT24=
EXTT25=
EXTT26=
EXTT27=
EXTT28=
EXTT29=
PLAYORDER=
